<mxfile host="app.diagrams.net" modified="2021-11-02T05:34:23.500Z" agent="5.0 (Macintosh; Intel Mac OS X 10_15_7) AppleWebKit/537.36 (KHTML, like Gecko) Chrome/95.0.4638.54 Safari/537.36" etag="AWEeVeUhwgiV_fqVSidD" version="15.6.5" type="github" pages="2">
  <diagram id="prtHgNgQTEPvFCAcTncT" name="Page-1">
    <mxGraphModel dx="1069" dy="653" grid="1" gridSize="10" guides="1" tooltips="1" connect="1" arrows="1" fold="1" page="1" pageScale="1" pageWidth="827" pageHeight="1169" math="0" shadow="0">
      <root>
        <mxCell id="0" />
        <mxCell id="1" parent="0" />
        <mxCell id="oCZXF1ZKa8OwWXfrZg3Q-28" value="" style="rounded=0;whiteSpace=wrap;html=1;fillOpacity=100;" parent="1" vertex="1">
          <mxGeometry x="20" y="500" width="600" height="170" as="geometry" />
        </mxCell>
        <mxCell id="oCZXF1ZKa8OwWXfrZg3Q-30" value="数字孪生产业联盟" style="rounded=0;whiteSpace=wrap;html=1;fontSize=14;fontStyle=0" parent="1" vertex="1">
          <mxGeometry x="70" y="590" width="250" height="60" as="geometry" />
        </mxCell>
        <mxCell id="oCZXF1ZKa8OwWXfrZg3Q-31" value="数字孪生技术开源社区" style="rounded=0;whiteSpace=wrap;html=1;fontSize=14;fontStyle=0" parent="1" vertex="1">
          <mxGeometry x="350" y="590" width="252.5" height="60" as="geometry" />
        </mxCell>
        <mxCell id="oCZXF1ZKa8OwWXfrZg3Q-32" value="数字孪生供需对接平台" style="rounded=0;whiteSpace=wrap;html=1;fontSize=14;fontStyle=0" parent="1" vertex="1">
          <mxGeometry x="70" y="517" width="160" height="60" as="geometry" />
        </mxCell>
        <mxCell id="oCZXF1ZKa8OwWXfrZg3Q-33" value="数字孪生成果转化平台" style="rounded=0;whiteSpace=wrap;html=1;fontSize=14;fontStyle=0" parent="1" vertex="1">
          <mxGeometry x="253.5" y="520" width="160" height="60" as="geometry" />
        </mxCell>
        <mxCell id="oCZXF1ZKa8OwWXfrZg3Q-34" value="数字孪生企业孵化平台" style="rounded=0;whiteSpace=wrap;html=1;fontSize=14;fontStyle=0" parent="1" vertex="1">
          <mxGeometry x="442.5" y="520" width="160" height="60" as="geometry" />
        </mxCell>
        <mxCell id="oCZXF1ZKa8OwWXfrZg3Q-35" value="五大载体" style="text;html=1;strokeColor=none;fillColor=none;align=center;verticalAlign=middle;whiteSpace=wrap;rounded=0;fontSize=15;fontStyle=1" parent="1" vertex="1">
          <mxGeometry x="30" y="550" width="20" height="30" as="geometry" />
        </mxCell>
        <mxCell id="oCZXF1ZKa8OwWXfrZg3Q-42" value="" style="rounded=0;whiteSpace=wrap;html=1;fillOpacity=100;" parent="1" vertex="1">
          <mxGeometry x="20" y="350" width="600" height="130" as="geometry" />
        </mxCell>
        <mxCell id="oCZXF1ZKa8OwWXfrZg3Q-43" value="" style="shape=mxgraph.arrows.arrow_down;verticalLabelPosition=bottom;verticalAlign=top;strokeWidth=1;strokeColor=#000000;fontSize=14;rotation=-180;fontColor=default;html=1;" parent="1" vertex="1">
          <mxGeometry x="280" y="463" width="105" height="54" as="geometry" />
        </mxCell>
        <mxCell id="oCZXF1ZKa8OwWXfrZg3Q-55" value="供需对接" style="rounded=0;whiteSpace=wrap;html=1;imageWidth=24;fontSize=14;" parent="1" vertex="1">
          <mxGeometry x="172.5" y="370" width="100" height="40" as="geometry" />
        </mxCell>
        <mxCell id="oCZXF1ZKa8OwWXfrZg3Q-56" value="资源汇聚" style="rounded=0;whiteSpace=wrap;html=1;imageWidth=24;fontSize=14;" parent="1" vertex="1">
          <mxGeometry x="62.5" y="370" width="100" height="40" as="geometry" />
        </mxCell>
        <mxCell id="oCZXF1ZKa8OwWXfrZg3Q-57" value="企业孵化" style="rounded=0;whiteSpace=wrap;html=1;imageWidth=24;fontSize=14;" parent="1" vertex="1">
          <mxGeometry x="62.5" y="420" width="100" height="40" as="geometry" />
        </mxCell>
        <mxCell id="oCZXF1ZKa8OwWXfrZg3Q-58" value="人才引培" style="rounded=0;whiteSpace=wrap;html=1;imageWidth=24;fontSize=14;" parent="1" vertex="1">
          <mxGeometry x="392.5" y="420" width="100" height="40" as="geometry" />
        </mxCell>
        <mxCell id="oCZXF1ZKa8OwWXfrZg3Q-59" value="标准制定" style="rounded=0;whiteSpace=wrap;html=1;imageWidth=24;fontSize=14;" parent="1" vertex="1">
          <mxGeometry x="172.5" y="420" width="100" height="40" as="geometry" />
        </mxCell>
        <mxCell id="oCZXF1ZKa8OwWXfrZg3Q-60" value="成果转化" style="rounded=0;whiteSpace=wrap;html=1;imageWidth=24;fontSize=14;" parent="1" vertex="1">
          <mxGeometry x="392.5" y="370" width="100" height="40" as="geometry" />
        </mxCell>
        <mxCell id="oCZXF1ZKa8OwWXfrZg3Q-61" value="决策咨询" style="rounded=0;whiteSpace=wrap;html=1;imageWidth=24;fontSize=14;" parent="1" vertex="1">
          <mxGeometry x="282.5" y="420" width="100" height="40" as="geometry" />
        </mxCell>
        <mxCell id="oCZXF1ZKa8OwWXfrZg3Q-62" value="成果中试" style="rounded=0;whiteSpace=wrap;html=1;imageWidth=24;fontSize=14;" parent="1" vertex="1">
          <mxGeometry x="282.5" y="370" width="100" height="40" as="geometry" />
        </mxCell>
        <mxCell id="oCZXF1ZKa8OwWXfrZg3Q-63" value="定制研发" style="rounded=0;whiteSpace=wrap;html=1;imageWidth=24;fontSize=14;" parent="1" vertex="1">
          <mxGeometry x="502.5" y="370" width="100" height="40" as="geometry" />
        </mxCell>
        <mxCell id="oCZXF1ZKa8OwWXfrZg3Q-64" value="开放共享" style="rounded=0;whiteSpace=wrap;html=1;imageWidth=24;fontSize=14;" parent="1" vertex="1">
          <mxGeometry x="502.5" y="420" width="100" height="40" as="geometry" />
        </mxCell>
        <mxCell id="oCZXF1ZKa8OwWXfrZg3Q-65" value="" style="rounded=0;whiteSpace=wrap;html=1;fillOpacity=100;spacing=1;" parent="1" vertex="1">
          <mxGeometry x="20" y="190" width="600" height="139" as="geometry" />
        </mxCell>
        <mxCell id="oCZXF1ZKa8OwWXfrZg3Q-66" value="城市治理" style="rounded=0;whiteSpace=wrap;html=1;fontStyle=0;fontSize=14;" parent="1" vertex="1">
          <mxGeometry x="60" y="250" width="120" height="50" as="geometry" />
        </mxCell>
        <mxCell id="oCZXF1ZKa8OwWXfrZg3Q-67" value="&lt;span style=&quot;font-size: 14px;&quot;&gt;先进制造&lt;/span&gt;&lt;span style=&quot;font-size: 14px;&quot;&gt;&lt;/span&gt;" style="rounded=0;whiteSpace=wrap;html=1;fontStyle=0;fontSize=14;" parent="1" vertex="1">
          <mxGeometry x="200" y="250" width="120" height="50" as="geometry" />
        </mxCell>
        <mxCell id="oCZXF1ZKa8OwWXfrZg3Q-68" value="&lt;span style=&quot;font-size: 14px;&quot;&gt;港口航运&lt;/span&gt;&lt;span style=&quot;font-size: 14px;&quot;&gt;&lt;/span&gt;" style="rounded=0;whiteSpace=wrap;html=1;fontStyle=0;fontSize=14;" parent="1" vertex="1">
          <mxGeometry x="480" y="250" width="120" height="50" as="geometry" />
        </mxCell>
        <mxCell id="oCZXF1ZKa8OwWXfrZg3Q-69" value="&lt;span style=&quot;font-size: 14px;&quot;&gt;社会民生&lt;/span&gt;&lt;span style=&quot;font-size: 14px;&quot;&gt;&lt;/span&gt;" style="rounded=0;whiteSpace=wrap;html=1;fontStyle=0;fontSize=14;" parent="1" vertex="1">
          <mxGeometry x="340" y="250" width="120" height="50" as="geometry" />
        </mxCell>
        <mxCell id="oCZXF1ZKa8OwWXfrZg3Q-70" value="" style="shape=mxgraph.arrows.arrow_down;html=1;verticalLabelPosition=bottom;verticalAlign=top;strokeWidth=1;strokeColor=#000000;fontSize=14;rotation=-180;" parent="1" vertex="1">
          <mxGeometry x="280" y="311.5" width="105" height="53" as="geometry" />
        </mxCell>
        <mxCell id="oCZXF1ZKa8OwWXfrZg3Q-71" value="服务体系" style="text;html=1;strokeColor=none;fillColor=none;align=center;verticalAlign=middle;whiteSpace=wrap;rounded=0;fontSize=15;fontStyle=1" parent="1" vertex="1">
          <mxGeometry x="30" y="390" width="20" height="30" as="geometry" />
        </mxCell>
        <mxCell id="oCZXF1ZKa8OwWXfrZg3Q-72" value="四大重点应用领域" style="text;html=1;strokeColor=none;fillColor=none;align=center;verticalAlign=middle;whiteSpace=wrap;rounded=0;fontSize=15;fontStyle=1" parent="1" vertex="1">
          <mxGeometry x="30" y="210" width="130" height="10" as="geometry" />
        </mxCell>
        <mxCell id="oCZXF1ZKa8OwWXfrZg3Q-74" value="支撑" style="text;html=1;strokeColor=none;fillColor=none;align=center;verticalAlign=middle;whiteSpace=wrap;rounded=0;fontSize=15;fontStyle=0;strokeWidth=0;imageAspect=0;" parent="1" vertex="1">
          <mxGeometry x="292.5" y="480" width="80" height="30" as="geometry" />
        </mxCell>
        <mxCell id="oCZXF1ZKa8OwWXfrZg3Q-75" value="&lt;span style=&quot;color: rgb(0 , 0 , 0) ; font-family: &amp;#34;helvetica&amp;#34; ; font-size: 15px ; font-style: normal ; font-weight: 400 ; letter-spacing: normal ; text-align: center ; text-indent: 0px ; text-transform: none ; word-spacing: 0px ; background-color: rgb(248 , 249 , 250) ; display: inline ; float: none&quot;&gt;服务&lt;/span&gt;" style="text;whiteSpace=wrap;html=1;fontSize=14;" parent="1" vertex="1">
          <mxGeometry x="312.5" y="320" width="60" height="30" as="geometry" />
        </mxCell>
      </root>
    </mxGraphModel>
  </diagram>
  <diagram id="aVpZzM9wHLWLnxJ5MPZ4" name="Page-2">
    <mxGraphModel dx="1069" dy="653" grid="1" gridSize="10" guides="1" tooltips="1" connect="1" arrows="1" fold="1" page="1" pageScale="1" pageWidth="827" pageHeight="1169" math="0" shadow="0">
      <root>
        <mxCell id="_t7A6OTzlDqZx_jlpWTQ-0" />
        <mxCell id="_t7A6OTzlDqZx_jlpWTQ-1" parent="_t7A6OTzlDqZx_jlpWTQ-0" />
        <mxCell id="_t7A6OTzlDqZx_jlpWTQ-2" value="" style="rounded=0;whiteSpace=wrap;html=1;fillOpacity=100;fillColor=default;strokeColor=default;fontColor=default;" vertex="1" parent="_t7A6OTzlDqZx_jlpWTQ-1">
          <mxGeometry x="20" y="500" width="600" height="170" as="geometry" />
        </mxCell>
        <mxCell id="_t7A6OTzlDqZx_jlpWTQ-3" value="数字孪生产业联盟" style="rounded=0;whiteSpace=wrap;html=1;fontSize=14;fontStyle=0;fillColor=default;strokeColor=default;fontColor=default;" vertex="1" parent="_t7A6OTzlDqZx_jlpWTQ-1">
          <mxGeometry x="70" y="590" width="250" height="60" as="geometry" />
        </mxCell>
        <mxCell id="_t7A6OTzlDqZx_jlpWTQ-4" value="数字孪生技术开源社区" style="rounded=0;whiteSpace=wrap;html=1;fontSize=14;fontStyle=0;fillColor=default;strokeColor=default;fontColor=default;" vertex="1" parent="_t7A6OTzlDqZx_jlpWTQ-1">
          <mxGeometry x="350" y="590" width="252.5" height="60" as="geometry" />
        </mxCell>
        <mxCell id="_t7A6OTzlDqZx_jlpWTQ-5" value="数字孪生供需对接平台" style="rounded=0;whiteSpace=wrap;html=1;fontSize=14;fontStyle=0;fillColor=default;strokeColor=default;fontColor=default;" vertex="1" parent="_t7A6OTzlDqZx_jlpWTQ-1">
          <mxGeometry x="70" y="517" width="160" height="60" as="geometry" />
        </mxCell>
        <mxCell id="_t7A6OTzlDqZx_jlpWTQ-6" value="数字孪生成果转化平台" style="rounded=0;whiteSpace=wrap;html=1;fontSize=14;fontStyle=0;fillColor=default;strokeColor=default;fontColor=default;" vertex="1" parent="_t7A6OTzlDqZx_jlpWTQ-1">
          <mxGeometry x="253.5" y="520" width="160" height="60" as="geometry" />
        </mxCell>
        <mxCell id="_t7A6OTzlDqZx_jlpWTQ-7" value="数字孪生企业孵化平台" style="rounded=0;whiteSpace=wrap;html=1;fontSize=14;fontStyle=0;fillColor=default;strokeColor=default;fontColor=default;" vertex="1" parent="_t7A6OTzlDqZx_jlpWTQ-1">
          <mxGeometry x="442.5" y="520" width="160" height="60" as="geometry" />
        </mxCell>
        <mxCell id="_t7A6OTzlDqZx_jlpWTQ-8" value="五大载体" style="text;html=1;strokeColor=none;fillColor=none;align=center;verticalAlign=middle;whiteSpace=wrap;rounded=0;fontSize=15;fontStyle=1;fontColor=default;" vertex="1" parent="_t7A6OTzlDqZx_jlpWTQ-1">
          <mxGeometry x="30" y="550" width="20" height="30" as="geometry" />
        </mxCell>
        <mxCell id="_t7A6OTzlDqZx_jlpWTQ-9" value="" style="rounded=0;whiteSpace=wrap;html=1;fillOpacity=100;" vertex="1" parent="_t7A6OTzlDqZx_jlpWTQ-1">
          <mxGeometry x="20" y="350" width="600" height="130" as="geometry" />
        </mxCell>
        <mxCell id="_t7A6OTzlDqZx_jlpWTQ-10" value="" style="shape=mxgraph.arrows.arrow_down;verticalLabelPosition=bottom;verticalAlign=top;strokeWidth=1;strokeColor=#000000;fontSize=14;rotation=-180;fontColor=default;html=1;fillColor=default;" vertex="1" parent="_t7A6OTzlDqZx_jlpWTQ-1">
          <mxGeometry x="280" y="463" width="105" height="54" as="geometry" />
        </mxCell>
        <mxCell id="_t7A6OTzlDqZx_jlpWTQ-11" value="供需对接" style="rounded=0;whiteSpace=wrap;html=1;imageWidth=24;fontSize=14;" vertex="1" parent="_t7A6OTzlDqZx_jlpWTQ-1">
          <mxGeometry x="172.5" y="370" width="100" height="40" as="geometry" />
        </mxCell>
        <mxCell id="_t7A6OTzlDqZx_jlpWTQ-12" value="资源汇聚" style="rounded=0;whiteSpace=wrap;html=1;imageWidth=24;fontSize=14;" vertex="1" parent="_t7A6OTzlDqZx_jlpWTQ-1">
          <mxGeometry x="62.5" y="370" width="100" height="40" as="geometry" />
        </mxCell>
        <mxCell id="_t7A6OTzlDqZx_jlpWTQ-13" value="企业孵化" style="rounded=0;whiteSpace=wrap;html=1;imageWidth=24;fontSize=14;" vertex="1" parent="_t7A6OTzlDqZx_jlpWTQ-1">
          <mxGeometry x="62.5" y="420" width="100" height="40" as="geometry" />
        </mxCell>
        <mxCell id="_t7A6OTzlDqZx_jlpWTQ-14" value="人才引培" style="rounded=0;whiteSpace=wrap;html=1;imageWidth=24;fontSize=14;" vertex="1" parent="_t7A6OTzlDqZx_jlpWTQ-1">
          <mxGeometry x="392.5" y="420" width="100" height="40" as="geometry" />
        </mxCell>
        <mxCell id="_t7A6OTzlDqZx_jlpWTQ-15" value="标准制定" style="rounded=0;whiteSpace=wrap;html=1;imageWidth=24;fontSize=14;" vertex="1" parent="_t7A6OTzlDqZx_jlpWTQ-1">
          <mxGeometry x="172.5" y="420" width="100" height="40" as="geometry" />
        </mxCell>
        <mxCell id="_t7A6OTzlDqZx_jlpWTQ-16" value="成果转化" style="rounded=0;whiteSpace=wrap;html=1;imageWidth=24;fontSize=14;" vertex="1" parent="_t7A6OTzlDqZx_jlpWTQ-1">
          <mxGeometry x="392.5" y="370" width="100" height="40" as="geometry" />
        </mxCell>
        <mxCell id="_t7A6OTzlDqZx_jlpWTQ-17" value="决策咨询" style="rounded=0;whiteSpace=wrap;html=1;imageWidth=24;fontSize=14;" vertex="1" parent="_t7A6OTzlDqZx_jlpWTQ-1">
          <mxGeometry x="282.5" y="420" width="100" height="40" as="geometry" />
        </mxCell>
        <mxCell id="_t7A6OTzlDqZx_jlpWTQ-18" value="成果中试" style="rounded=0;whiteSpace=wrap;html=1;imageWidth=24;fontSize=14;" vertex="1" parent="_t7A6OTzlDqZx_jlpWTQ-1">
          <mxGeometry x="282.5" y="370" width="100" height="40" as="geometry" />
        </mxCell>
        <mxCell id="_t7A6OTzlDqZx_jlpWTQ-19" value="定制研发" style="rounded=0;whiteSpace=wrap;html=1;imageWidth=24;fontSize=14;" vertex="1" parent="_t7A6OTzlDqZx_jlpWTQ-1">
          <mxGeometry x="502.5" y="370" width="100" height="40" as="geometry" />
        </mxCell>
        <mxCell id="_t7A6OTzlDqZx_jlpWTQ-20" value="开放共享" style="rounded=0;whiteSpace=wrap;html=1;imageWidth=24;fontSize=14;" vertex="1" parent="_t7A6OTzlDqZx_jlpWTQ-1">
          <mxGeometry x="502.5" y="420" width="100" height="40" as="geometry" />
        </mxCell>
        <mxCell id="_t7A6OTzlDqZx_jlpWTQ-21" value="" style="rounded=0;whiteSpace=wrap;html=1;fillOpacity=100;spacing=1;" vertex="1" parent="_t7A6OTzlDqZx_jlpWTQ-1">
          <mxGeometry x="20" y="190" width="600" height="139" as="geometry" />
        </mxCell>
        <mxCell id="_t7A6OTzlDqZx_jlpWTQ-22" value="城市治理" style="rounded=0;whiteSpace=wrap;html=1;fontStyle=0;fontSize=14;" vertex="1" parent="_t7A6OTzlDqZx_jlpWTQ-1">
          <mxGeometry x="60" y="250" width="120" height="50" as="geometry" />
        </mxCell>
        <mxCell id="_t7A6OTzlDqZx_jlpWTQ-23" value="&lt;span style=&quot;font-size: 14px;&quot;&gt;先进制造&lt;/span&gt;&lt;span style=&quot;font-size: 14px;&quot;&gt;&lt;/span&gt;" style="rounded=0;whiteSpace=wrap;html=1;fontStyle=0;fontSize=14;" vertex="1" parent="_t7A6OTzlDqZx_jlpWTQ-1">
          <mxGeometry x="200" y="250" width="120" height="50" as="geometry" />
        </mxCell>
        <mxCell id="_t7A6OTzlDqZx_jlpWTQ-24" value="&lt;span style=&quot;font-size: 14px;&quot;&gt;港口航运&lt;/span&gt;&lt;span style=&quot;font-size: 14px;&quot;&gt;&lt;/span&gt;" style="rounded=0;whiteSpace=wrap;html=1;fontStyle=0;fontSize=14;" vertex="1" parent="_t7A6OTzlDqZx_jlpWTQ-1">
          <mxGeometry x="480" y="250" width="120" height="50" as="geometry" />
        </mxCell>
        <mxCell id="_t7A6OTzlDqZx_jlpWTQ-25" value="&lt;span style=&quot;font-size: 14px;&quot;&gt;社会民生&lt;/span&gt;&lt;span style=&quot;font-size: 14px;&quot;&gt;&lt;/span&gt;" style="rounded=0;whiteSpace=wrap;html=1;fontStyle=0;fontSize=14;" vertex="1" parent="_t7A6OTzlDqZx_jlpWTQ-1">
          <mxGeometry x="340" y="250" width="120" height="50" as="geometry" />
        </mxCell>
        <mxCell id="_t7A6OTzlDqZx_jlpWTQ-26" value="" style="shape=mxgraph.arrows.arrow_down;html=1;verticalLabelPosition=bottom;verticalAlign=top;strokeWidth=1;strokeColor=#000000;fontSize=14;rotation=-180;" vertex="1" parent="_t7A6OTzlDqZx_jlpWTQ-1">
          <mxGeometry x="280" y="311.5" width="105" height="53" as="geometry" />
        </mxCell>
        <mxCell id="_t7A6OTzlDqZx_jlpWTQ-27" value="服务体系" style="text;html=1;strokeColor=none;fillColor=none;align=center;verticalAlign=middle;whiteSpace=wrap;rounded=0;fontSize=15;fontStyle=1" vertex="1" parent="_t7A6OTzlDqZx_jlpWTQ-1">
          <mxGeometry x="30" y="390" width="20" height="30" as="geometry" />
        </mxCell>
        <mxCell id="_t7A6OTzlDqZx_jlpWTQ-28" value="四大重点应用领域" style="text;html=1;strokeColor=none;fillColor=none;align=center;verticalAlign=middle;whiteSpace=wrap;rounded=0;fontSize=15;fontStyle=1" vertex="1" parent="_t7A6OTzlDqZx_jlpWTQ-1">
          <mxGeometry x="30" y="210" width="130" height="10" as="geometry" />
        </mxCell>
        <mxCell id="_t7A6OTzlDqZx_jlpWTQ-29" value="支撑" style="text;html=1;strokeColor=none;fillColor=none;align=center;verticalAlign=middle;whiteSpace=wrap;rounded=0;fontSize=15;fontStyle=0;strokeWidth=0;imageAspect=0;fontColor=default;" vertex="1" parent="_t7A6OTzlDqZx_jlpWTQ-1">
          <mxGeometry x="292.5" y="480" width="80" height="30" as="geometry" />
        </mxCell>
        <mxCell id="_t7A6OTzlDqZx_jlpWTQ-30" value="&lt;span style=&quot;color: rgb(0 , 0 , 0) ; font-family: &amp;#34;helvetica&amp;#34; ; font-size: 15px ; font-style: normal ; font-weight: 400 ; letter-spacing: normal ; text-align: center ; text-indent: 0px ; text-transform: none ; word-spacing: 0px ; background-color: rgb(248 , 249 , 250) ; display: inline ; float: none&quot;&gt;服务&lt;/span&gt;" style="text;whiteSpace=wrap;html=1;fontSize=14;" vertex="1" parent="_t7A6OTzlDqZx_jlpWTQ-1">
          <mxGeometry x="312.5" y="320" width="60" height="30" as="geometry" />
        </mxCell>
        <mxCell id="_t7A6OTzlDqZx_jlpWTQ-31" value="" style="rounded=0;whiteSpace=wrap;html=1;fillOpacity=100;fillColor=default;strokeColor=default;fontColor=default;" vertex="1" parent="_t7A6OTzlDqZx_jlpWTQ-1">
          <mxGeometry x="20" y="690" width="600" height="170" as="geometry" />
        </mxCell>
        <mxCell id="_t7A6OTzlDqZx_jlpWTQ-32" value="数字孪生产业联盟" style="rounded=0;whiteSpace=wrap;html=1;fontSize=14;fontStyle=0;fillColor=default;strokeColor=default;fontColor=default;" vertex="1" parent="_t7A6OTzlDqZx_jlpWTQ-1">
          <mxGeometry x="70" y="780" width="250" height="60" as="geometry" />
        </mxCell>
        <mxCell id="_t7A6OTzlDqZx_jlpWTQ-33" value="数字孪生技术开源社区" style="rounded=0;whiteSpace=wrap;html=1;fontSize=14;fontStyle=0;fillColor=default;strokeColor=default;fontColor=default;" vertex="1" parent="_t7A6OTzlDqZx_jlpWTQ-1">
          <mxGeometry x="350" y="780" width="252.5" height="60" as="geometry" />
        </mxCell>
        <mxCell id="_t7A6OTzlDqZx_jlpWTQ-34" value="数字孪生供需对接平台" style="rounded=0;whiteSpace=wrap;html=1;fontSize=14;fontStyle=0;fillColor=default;strokeColor=default;fontColor=default;" vertex="1" parent="_t7A6OTzlDqZx_jlpWTQ-1">
          <mxGeometry x="70" y="707" width="160" height="60" as="geometry" />
        </mxCell>
        <mxCell id="_t7A6OTzlDqZx_jlpWTQ-35" value="数字孪生成果转化平台" style="rounded=0;whiteSpace=wrap;html=1;fontSize=14;fontStyle=0;fillColor=default;strokeColor=default;fontColor=default;" vertex="1" parent="_t7A6OTzlDqZx_jlpWTQ-1">
          <mxGeometry x="253.5" y="710" width="160" height="60" as="geometry" />
        </mxCell>
        <mxCell id="_t7A6OTzlDqZx_jlpWTQ-36" value="数字孪生企业孵化平台" style="rounded=0;whiteSpace=wrap;html=1;fontSize=14;fontStyle=0;fillColor=default;strokeColor=default;fontColor=default;" vertex="1" parent="_t7A6OTzlDqZx_jlpWTQ-1">
          <mxGeometry x="442.5" y="710" width="160" height="60" as="geometry" />
        </mxCell>
        <mxCell id="_t7A6OTzlDqZx_jlpWTQ-37" value="九大任务" style="text;html=1;strokeColor=none;fillColor=none;align=center;verticalAlign=middle;whiteSpace=wrap;rounded=0;fontSize=15;fontStyle=1;fontColor=default;" vertex="1" parent="_t7A6OTzlDqZx_jlpWTQ-1">
          <mxGeometry x="30" y="740" width="20" height="30" as="geometry" />
        </mxCell>
        <mxCell id="_t7A6OTzlDqZx_jlpWTQ-39" value="" style="shape=mxgraph.arrows.arrow_down;verticalLabelPosition=bottom;verticalAlign=top;strokeWidth=1;strokeColor=#000000;fontSize=14;rotation=-180;fontColor=default;html=1;fillColor=default;" vertex="1" parent="_t7A6OTzlDqZx_jlpWTQ-1">
          <mxGeometry x="282.5" y="652" width="105" height="54" as="geometry" />
        </mxCell>
        <mxCell id="_t7A6OTzlDqZx_jlpWTQ-41" value="构建" style="text;html=1;strokeColor=none;fillColor=none;align=center;verticalAlign=middle;whiteSpace=wrap;rounded=0;fontSize=15;fontStyle=0;strokeWidth=0;imageAspect=0;fontColor=default;" vertex="1" parent="_t7A6OTzlDqZx_jlpWTQ-1">
          <mxGeometry x="295" y="663" width="80" height="30" as="geometry" />
        </mxCell>
      </root>
    </mxGraphModel>
  </diagram>
</mxfile>
